<?xml version="1.0" standalone="no"?>
<!DOCTYPE svg PUBLIC "-//W3C//DTD SVG 20010904//EN"
 "http://www.w3.org/TR/2001/REC-SVG-20010904/DTD/svg10.dtd">
<svg version="1.0" xmlns="http://www.w3.org/2000/svg"
 width="387.000000pt" height="310.000000pt" viewBox="0 0 387.000000 310.000000"
 preserveAspectRatio="xMidYMid meet">
<metadata>
Created by potrace 1.16, written by Peter Selinger 2001-2019
</metadata>
<g transform="translate(0.000000,310.000000) scale(0.100000,-0.100000)"
fill="#000000" stroke="none">
<path d="M1154 2639 c-17 -29 -9 -95 19 -146 16 -29 31 -53 33 -53 7 0 -8 104
-18 123 -5 10 -10 32 -10 48 -1 32 -13 46 -24 28z"/>
<path d="M2639 2628 c-6 -21 -5 -118 1 -118 5 0 16 -18 26 -40 21 -48 38 -53
29 -7 -16 81 -40 167 -47 167 -4 0 -8 -1 -9 -2z m22 -105 c13 -16 12 -17 -3
-4 -10 7 -18 15 -18 17 0 8 8 3 21 -13z"/>
<path d="M3175 2449 c-263 -59 -780 -84 -1112 -53 -32 3 -64 1 -71 -4 -9 -6
-23 -70 -38 -168 -13 -88 -31 -199 -40 -249 -40 -229 -39 -216 -20 -231 23
-16 199 -74 227 -74 24 0 59 17 59 29 0 5 14 45 30 89 25 64 36 82 58 90 30
12 341 10 360 -2 18 -11 15 -47 -8 -83 -51 -84 -130 -248 -167 -348 -78 -210
-151 -410 -157 -435 -4 -14 -11 -34 -16 -45 -27 -67 -48 -124 -54 -150 -4 -16
-26 -76 -48 -133 -39 -99 -40 -103 -22 -117 11 -7 51 -17 89 -20 39 -4 84 -9
100 -12 17 -2 95 -10 175 -17 80 -8 164 -20 187 -26 77 -23 121 7 103 71 -29
101 7 474 64 669 61 205 172 456 259 584 62 92 152 208 181 235 33 31 34 70 6
211 -11 56 -20 114 -20 130 0 39 -17 80 -32 79 -7 -1 -49 -10 -93 -20z m44
-83 c9 -11 48 -205 51 -254 0 -1 -27 -32 -60 -67 -200 -214 -382 -620 -450
-999 -20 -113 -42 -370 -33 -393 3 -7 -2 -24 -11 -38 -20 -30 -45 -31 -226
-10 -69 8 -143 15 -164 15 -42 0 -76 22 -76 49 0 9 12 43 26 76 14 33 27 67
29 75 2 8 13 40 25 70 12 30 55 152 95 270 40 118 82 241 94 273 22 63 125
273 145 297 34 41 117 202 112 217 -6 15 -34 16 -284 10 l-277 -6 -20 -25
c-11 -14 -31 -53 -44 -86 -27 -71 -47 -83 -111 -69 -78 18 -83 23 -76 87 15
132 65 420 78 445 8 16 32 17 361 14 362 -4 479 4 707 47 98 18 96 18 109 2z"/>
<path d="M2495 2174 c-20 -20 -16 -53 7 -68 25 -16 72 4 76 32 7 47 -48 70
-83 36z"/>
<path d="M2274 2144 c-8 -29 9 -46 41 -42 40 6 25 68 -16 68 -12 0 -21 -10
-25 -26z"/>
<path d="M2752 2134 c-40 -28 -19 -79 30 -72 18 2 24 10 26 35 4 41 -24 60
-56 37z"/>
<path d="M2899 1994 c-17 -21 0 -48 34 -52 18 -2 27 2 32 18 13 41 -38 68 -66
34z"/>
<path d="M2810 1720 c-11 -11 -20 -24 -20 -29 0 -16 31 -41 50 -41 21 0 50 25
50 44 0 16 -32 46 -48 46 -7 0 -21 -9 -32 -20z"/>
<path d="M2712 1624 c-37 -26 -23 -74 23 -74 42 0 59 44 29 74 -19 20 -24 20
-52 0z"/>
<path d="M2530 1205 c-7 -9 -10 -25 -6 -40 6 -22 11 -26 39 -23 25 2 33 8 35
26 7 44 -41 70 -68 37z"/>
<path d="M2566 1045 c-20 -21 -20 -39 0 -60 16 -15 48 -13 67 5 10 9 -2 60
-13 60 -5 0 -15 3 -23 6 -8 3 -22 -2 -31 -11z"/>
<path d="M2486 817 c-38 -27 2 -95 42 -71 23 15 27 48 7 68 -20 19 -26 20 -49
3z"/>
<path d="M1275 2393 c-247 -8 -552 -27 -589 -37 -23 -6 -47 -43 -51 -81 -15
-126 -16 -195 -1 -223 20 -39 27 -41 185 -68 74 -12 137 -28 141 -34 7 -12 4
-382 -6 -718 -7 -231 -6 -229 -109 -242 -39 -5 -96 -9 -128 -10 -51 0 -62 -4
-88 -29 l-29 -29 0 -131 c0 -147 7 -173 57 -196 31 -15 71 -16 361 -10 180 4
338 7 352 8 14 0 107 -3 207 -7 l183 -8 29 29 c27 28 29 34 36 156 10 178 3
188 -154 201 -104 9 -127 20 -142 63 -8 25 -10 216 -8 680 l4 645 -28 24 c-23
20 -38 24 -85 22 -31 -1 -93 -3 -137 -5z m145 -83 l23 -12 -7 -619 c-7 -555
-6 -624 8 -667 29 -86 77 -115 213 -127 41 -4 77 -13 83 -20 14 -17 6 -183 -9
-198 -20 -20 -1013 -6 -1035 14 -6 5 -12 51 -14 103 -4 114 -7 112 133 118
153 7 209 46 228 158 4 19 7 239 8 488 2 433 1 455 -17 473 -15 14 -54 23
-167 38 -81 11 -151 22 -156 25 -14 9 -12 214 3 219 7 3 84 6 171 6 88 1 160
3 161 4 1 1 81 4 177 5 123 3 181 0 197 -8z m-733 -192 c-2 -18 -4 -4 -4 32 0
36 2 50 4 33 2 -18 2 -48 0 -65z m345 -250 c-7 -7 -12 -8 -12 -2 0 14 12 26
19 19 2 -3 -1 -11 -7 -17z m465 -30 c-3 -7 -5 -2 -5 12 0 14 2 19 5 13 2 -7 2
-19 0 -25z m0 -65 c-3 -10 -5 -4 -5 12 0 17 2 24 5 18 2 -7 2 -21 0 -30z
m-470 5 c-3 -8 -6 -5 -6 6 -1 11 2 17 5 13 3 -3 4 -12 1 -19z m0 -95 c-2 -16
-4 -3 -4 27 0 30 2 43 4 28 2 -16 2 -40 0 -55z m470 -40 c-3 -10 -5 -4 -5 12
0 17 2 24 5 18 2 -7 2 -21 0 -30z m-470 -135 c-2 -29 -3 -8 -3 47 0 55 1 79 3
53 2 -26 2 -71 0 -100z m470 70 c-3 -7 -5 -2 -5 12 0 14 2 19 5 13 2 -7 2 -19
0 -25z m-472 -286 c-10 -10 -10 2 -5 83 l5 80 3 -79 c2 -43 0 -81 -3 -84z
m472 136 c-3 -8 -6 -5 -6 6 -1 11 2 17 5 13 3 -3 4 -12 1 -19z m0 -110 c-3 -7
-5 -2 -5 12 0 14 2 19 5 13 2 -7 2 -19 0 -25z m0 -160 c-2 -29 -3 -8 -3 47 0
55 1 79 3 53 2 -26 2 -71 0 -100z m-470 30 c-2 -13 -4 -3 -4 22 0 25 2 35 4
23 2 -13 2 -33 0 -45z m0 -105 c-3 -10 -5 -2 -5 17 0 19 2 27 5 18 2 -10 2
-26 0 -35z m780 -215 c-3 -7 -5 -2 -5 12 0 14 2 19 5 13 2 -7 2 -19 0 -25z
m-29 -13 c-3 -3 -9 2 -12 12 -6 14 -5 15 5 6 7 -7 10 -15 7 -18z m-1111 -132
c-3 -10 -5 -2 -5 17 0 19 2 27 5 18 2 -10 2 -26 0 -35z"/>
<path d="M1076 2219 c-13 -20 -14 -26 -2 -44 7 -11 25 -21 39 -23 21 -3 28 2
33 24 14 53 -40 86 -70 43z"/>
<path d="M1291 2081 c-25 -25 -26 -35 -5 -55 39 -39 95 -4 71 45 -16 31 -41
35 -66 10z"/>
<path d="M1202 1864 c-38 -26 -22 -74 24 -74 45 0 58 50 19 76 -18 12 -24 11
-43 -2z"/>
<path d="M1130 1471 c-20 -39 22 -82 60 -61 22 12 27 49 8 68 -18 18 -56 14
-68 -7z"/>
<path d="M1300 1296 c-16 -20 -9 -56 13 -70 39 -24 79 44 41 71 -23 17 -39 16
-54 -1z"/>
<path d="M1172 1088 c-26 -26 -6 -68 33 -68 40 0 58 38 31 66 -18 17 -48 18
-64 2z"/>
<path d="M1172 848 c-15 -15 -15 -51 0 -66 18 -18 56 -14 68 7 14 27 13 37 -6
55 -18 19 -45 21 -62 4z"/>
<path d="M1515 820 c-37 -41 24 -97 63 -58 18 18 14 56 -7 68 -27 14 -35 13
-56 -10z"/>
</g>
</svg>
